<svg width="157" height="19" viewBox="0 0 157 19" fill="none" xmlns="http://www.w3.org/2000/svg">
<path d="M21.44 14V3.504H28.88V14H27.552V4.624H22.768V14H21.44ZM31.7525 14V3.504H37.8005V4.624H33.0805V7.92H37.0645V9.056H33.0805V12.864H37.9605V14H31.7525ZM40.19 14V3.504H43.182C43.9713 3.504 44.6593 3.60533 45.246 3.808C45.8327 4 46.2913 4.32 46.622 4.768C46.9527 5.216 47.118 5.824 47.118 6.592C47.118 7.328 46.9527 7.936 46.622 8.416C46.302 8.88533 45.8487 9.24267 45.262 9.488C44.686 9.72267 44.014 9.84 43.246 9.84H41.518V14H40.19ZM41.518 8.752H43.086C44.0033 8.752 44.6807 8.576 45.118 8.224C45.566 7.872 45.79 7.328 45.79 6.592C45.79 5.83467 45.5553 5.312 45.086 5.024C44.6273 4.72533 43.9393 4.576 43.022 4.576H41.518V8.752ZM49.2525 14V3.504H55.3005V4.624H50.5805V7.92H54.5645V9.056H50.5805V12.864H55.4605V14H49.2525ZM60.371 14.192C59.5603 14.192 58.8403 14.08 58.211 13.856C57.5923 13.6213 57.0163 13.216 56.483 12.64L57.219 11.808C57.6777 12.2667 58.1523 12.5867 58.643 12.768C59.1443 12.9387 59.6777 13.024 60.243 13.024C60.7017 13.024 61.1177 12.944 61.491 12.784C61.875 12.6133 62.1737 12.3787 62.387 12.08C62.611 11.7707 62.723 11.3973 62.723 10.96C62.723 10.2773 62.4777 9.78133 61.987 9.472C61.4963 9.152 60.7977 8.992 59.891 8.992H58.707V7.968H59.651C60.5363 7.968 61.1763 7.81867 61.571 7.52C61.9763 7.21067 62.179 6.76267 62.179 6.176C62.179 5.632 61.987 5.216 61.603 4.928C61.219 4.62933 60.7283 4.48 60.131 4.48C59.6403 4.48 59.187 4.57067 58.771 4.752C58.3657 4.92267 57.9977 5.152 57.667 5.44L56.963 4.608C57.3257 4.23467 57.7843 3.92533 58.339 3.68C58.9043 3.43467 59.5123 3.312 60.163 3.312C60.8243 3.312 61.4057 3.41867 61.907 3.632C62.4083 3.84533 62.7977 4.14933 63.075 4.544C63.363 4.93867 63.507 5.424 63.507 6C63.507 6.576 63.363 7.06667 63.075 7.472C62.787 7.87733 62.4083 8.176 61.939 8.368V8.432C62.323 8.50667 62.6697 8.656 62.979 8.88C63.299 9.104 63.555 9.39733 63.747 9.76C63.939 10.112 64.035 10.5333 64.035 11.024C64.035 11.696 63.8643 12.272 63.523 12.752C63.1923 13.2213 62.7497 13.5787 62.195 13.824C61.6403 14.0693 61.0323 14.192 60.371 14.192ZM66.1119 14V3.504H69.2319C69.9359 3.504 70.5599 3.58933 71.1039 3.76C71.6479 3.93067 72.0692 4.208 72.3679 4.592C72.6772 4.96533 72.8319 5.456 72.8319 6.064C72.8319 6.608 72.6985 7.088 72.4319 7.504C72.1759 7.90933 71.7972 8.192 71.2959 8.352V8.416C71.9572 8.53333 72.4799 8.8 72.8639 9.216C73.2479 9.62133 73.4399 10.176 73.4399 10.88C73.4399 11.584 73.2692 12.1653 72.9279 12.624C72.5972 13.0827 72.1332 13.4293 71.5359 13.664C70.9385 13.888 70.2452 14 69.4559 14H66.1119ZM67.4399 7.968H68.9919C69.8879 7.968 70.5332 7.81333 70.9279 7.504C71.3225 7.19467 71.5199 6.77333 71.5199 6.24C71.5199 5.62133 71.3119 5.18933 70.8959 4.944C70.4799 4.688 69.8665 4.56 69.0559 4.56H67.4399V7.968ZM67.4399 12.944H69.2639C70.1705 12.944 70.8745 12.7787 71.3759 12.448C71.8772 12.1067 72.1279 11.584 72.1279 10.88C72.1279 10.2293 71.8825 9.75467 71.3919 9.456C70.9012 9.14667 70.1919 8.992 69.2639 8.992H67.4399V12.944ZM79.3901 14.192C78.5155 14.192 77.7368 13.968 77.0541 13.52C76.3821 13.072 75.8541 12.4373 75.4701 11.616C75.0968 10.7947 74.9101 9.824 74.9101 8.704C74.9101 7.584 75.0968 6.624 75.4701 5.824C75.8541 5.01333 76.3821 4.39467 77.0541 3.968C77.7368 3.53067 78.5155 3.312 79.3901 3.312C80.2755 3.312 81.0541 3.53067 81.7261 3.968C82.3981 4.39467 82.9261 5.01333 83.3101 5.824C83.6941 6.624 83.8861 7.584 83.8861 8.704C83.8861 9.824 83.6941 10.7947 83.3101 11.616C82.9261 12.4373 82.3981 13.072 81.7261 13.52C81.0541 13.968 80.2755 14.192 79.3901 14.192ZM79.3901 13.008C80.0195 13.008 80.5635 12.832 81.0221 12.48C81.4915 12.128 81.8541 11.632 82.1101 10.992C82.3661 10.3413 82.4941 9.57867 82.4941 8.704C82.4941 7.84 82.3661 7.09333 82.1101 6.464C81.8541 5.83467 81.4915 5.34933 81.0221 5.008C80.5635 4.656 80.0195 4.48 79.3901 4.48C78.7715 4.48 78.2275 4.656 77.7581 5.008C77.2888 5.34933 76.9261 5.83467 76.6701 6.464C76.4141 7.09333 76.2861 7.84 76.2861 8.704C76.2861 9.57867 76.4141 10.3413 76.6701 10.992C76.9261 11.632 77.2888 12.128 77.7581 12.48C78.2275 12.832 78.7715 13.008 79.3901 13.008ZM86.1431 14V3.504H87.4711V7.904H92.3671V3.504H93.6951V14H92.3671V9.056H87.4711V14H86.1431ZM96.5806 14V3.504H97.8926V8.928C97.8926 9.48267 97.8766 10.048 97.8446 10.624C97.8126 11.2 97.77 11.7547 97.7166 12.288H97.7806L98.9006 10.112L102.741 3.504H104.197V14H102.869V8.512C102.869 7.94667 102.89 7.38667 102.933 6.832C102.986 6.27733 103.029 5.73867 103.061 5.216H102.997L101.877 7.376L98.0366 14H96.5806ZM109.288 14V4.64H106.12V3.504H113.8V4.64H110.632V14H109.288ZM115.69 14V3.504H121.738V4.624H117.018V7.92H121.002V9.056H117.018V12.864H121.898V14H115.69ZM127.331 14V3.504H129.011L130.995 9.12C131.123 9.472 131.24 9.824 131.347 10.176C131.464 10.528 131.581 10.9013 131.699 11.296H131.763C131.88 10.9013 131.992 10.528 132.099 10.176C132.205 9.824 132.317 9.472 132.435 9.12L134.419 3.504H136.083V14H134.835V8.224C134.835 7.91467 134.845 7.568 134.867 7.184C134.888 6.8 134.909 6.42133 134.931 6.048C134.963 5.664 134.995 5.31733 135.027 5.008H134.963L134.147 7.536L132.179 12.96H131.203L129.235 7.536L128.419 5.008H128.355C128.387 5.31733 128.413 5.664 128.435 6.048C128.467 6.42133 128.493 6.8 128.515 7.184C128.536 7.568 128.547 7.91467 128.547 8.224V14H127.331ZM138.956 14V3.504H140.284V7.904H145.18V3.504H146.508V14H145.18V9.056H140.284V14H138.956ZM149.393 14V3.504H155.441V4.624H150.721V7.92H154.705V9.056H150.721V12.864H155.601V14H149.393Z" fill="#607CE6"/>
<g clip-path="url(#clip0_0_292)">
<path d="M12.1999 11C11.0999 10.9 10.4999 12.4 9.69989 12.8C8.39989 13.5 5.99989 11 5.99989 11C5.99989 11 3.49989 8.59997 4.09989 7.29997C4.59989 6.49997 6.09989 5.89997 5.99989 4.79997C5.89989 3.79997 3.69989 0.199967 2.59989 1.19997C0.199891 3.39997 -0.000108894 4.29997 -0.000108894 6.09997C-0.100109 9.19997 3.89989 13.1 3.89989 13.1C4.29989 13.5 7.79989 17.1 10.8999 17C12.6999 17 13.5999 16.8 15.7999 14.4C16.7999 13.3 13.2999 11.1 12.1999 11Z" fill="#607CE6"/>
</g>
<defs>
<clipPath id="clip0_0_292">
<rect width="16" height="16" fill="white" transform="translate(0 1)"/>
</clipPath>
</defs>
</svg>
